<svg width="14" height="12" viewBox="0 0 14 12" fill="none" xmlns="http://www.w3.org/2000/svg">
<path d="M13 4.99999H3L6.29 1.71C6.38373 1.61703 6.45812 1.50643 6.50889 1.38457C6.55966 1.26272 6.5858 1.13201 6.5858 0.999998C6.5858 0.867986 6.55966 0.737281 6.50889 0.615422C6.45812 0.493562 6.38373 0.382962 6.29 0.289999C6.10264 0.103748 5.84919 -0.000793457 5.585 -0.000793457C5.32081 -0.000793457 5.06736 0.103748 4.88 0.289999L0.59 4.58999C0.214412 4.96334 0.00223279 5.47042 0 5.99999C0.00486659 6.5261 0.216844 7.02909 0.59 7.39999L4.88 11.7C4.97324 11.7926 5.0838 11.8659 5.20537 11.9157C5.32694 11.9656 5.45714 11.991 5.58854 11.9905C5.71993 11.9901 5.84995 11.9637 5.97116 11.913C6.09238 11.8623 6.20242 11.7882 6.295 11.695C6.38758 11.6017 6.46089 11.4912 6.51075 11.3696C6.5606 11.248 6.58602 11.1178 6.58556 10.9864C6.58509 10.8551 6.55875 10.725 6.50804 10.6038C6.45733 10.4826 6.38324 10.3726 6.29 10.28L3 6.99999H13C13.2652 6.99999 13.5196 6.89463 13.7071 6.7071C13.8946 6.51956 14 6.26521 14 5.99999C14 5.73478 13.8946 5.48042 13.7071 5.29289C13.5196 5.10535 13.2652 4.99999 13 4.99999Z" fill="black"/>
</svg>
